<svg width="12" height="12" viewBox="0 0 12 12" fill="none" xmlns="http://www.w3.org/2000/svg">
<path fill-rule="evenodd" clip-rule="evenodd" d="M11.7907 9.61269L11.7075 9.70689L9.66563 11.7461L9.57206 11.8202L9.52752 11.8495L9.47199 11.8816L9.37345 11.9276L9.28557 11.9583L9.2047 11.9787L9.08533 11.996L9.00002 11.9996L8.91509 11.9961L8.85106 11.9886L8.76863 11.9727L8.65475 11.9384L8.57684 11.906L8.46906 11.8473L8.42831 11.8202L8.37041 11.7742L8.29293 11.7068L6.2927 9.70689C5.90214 9.31639 5.90214 8.68325 6.2927 8.29274C6.65321 7.93227 7.22049 7.90454 7.61281 8.20956L7.70702 8.29274L7.99978 8.58524L8.00002 1.00024C8.00002 0.487408 8.38606 0.064737 8.8834 0.00697187L9.00018 0.000244141C9.55246 0.000244141 10.0002 0.447959 10.0002 1.00024L9.99978 8.58524L10.2932 8.29274C10.6537 7.93227 11.221 7.90454 11.6133 8.20956L11.7075 8.29274C12.038 8.62317 12.0888 9.12732 11.86 9.5112L11.7907 9.61269ZM2.37741 0.218244L2.42865 0.179233L2.50195 0.132593L2.62221 0.0737689L2.76897 0.026714L2.8514 0.0108162L2.96741 0.000339064L3.08567 0.00341271L3.20504 0.0207295L3.31719 0.0509746L3.37379 0.0718151L3.47233 0.117818L3.5724 0.17927L3.62211 0.216406L3.70762 0.29269L5.70784 2.29255L5.79103 2.38675C6.07066 2.74634 6.07066 3.25291 5.79103 3.6125L5.70784 3.7067L5.61362 3.78989C5.25399 4.06948 4.74736 4.06948 4.38773 3.78989L4.29351 3.7067L4.00012 3.4142L4.00052 10.9992C4.00052 11.512 3.61448 11.9347 3.11714 11.9925L3.00052 11.9992L2.88374 11.9925C2.42466 11.9392 2.06041 11.5749 2.00709 11.1158L2.00036 10.9992L2.00012 3.4142L1.70736 3.7067L1.61315 3.78989C1.22083 4.0949 0.653551 4.06717 0.293038 3.7067C-0.067474 3.34623 -0.0952057 2.77903 0.209843 2.38675L0.293038 2.29255L2.29325 0.29269L2.37741 0.218244Z" fill="#A094C6"/>
</svg>
