<svg width="1111" height="16" viewBox="0 0 1111 16" fill="none" xmlns="http://www.w3.org/2000/svg">
<path d="M8.07955 6C7.75568 4.21023 6.32386 3.15341 4.56818 3.15341C2.33523 3.15341 0.715909 4.875 0.715909 7.63636C0.715909 10.3977 2.33523 12.1193 4.56818 12.1193C6.32386 12.1193 7.75568 11.0625 8.07955 9.27273H7.02273C6.76705 10.483 5.72727 11.1307 4.56818 11.1307C2.98295 11.1307 1.73864 9.90341 1.73864 7.63636C1.73864 5.36932 2.98295 4.14205 4.56818 4.14205C5.72727 4.14205 6.76705 4.78977 7.02273 6H8.07955ZM12.71 12.1364C14.4827 12.1364 15.6759 10.7898 15.6759 8.76136C15.6759 6.71591 14.4827 5.36932 12.71 5.36932C10.9373 5.36932 9.7441 6.71591 9.7441 8.76136C9.7441 10.7898 10.9373 12.1364 12.71 12.1364ZM12.71 11.233C11.3634 11.233 10.7498 10.0739 10.7498 8.76136C10.7498 7.44886 11.3634 6.27273 12.71 6.27273C14.0566 6.27273 14.6702 7.44886 14.6702 8.76136C14.6702 10.0739 14.0566 11.233 12.71 11.233ZM17.6111 14.4545H18.6168V10.9943H18.702C18.9236 11.3523 19.3497 12.1364 20.6111 12.1364C22.2474 12.1364 23.3895 10.8239 23.3895 8.74432C23.3895 6.68182 22.2474 5.36932 20.594 5.36932C19.3156 5.36932 18.9236 6.15341 18.702 6.49432H18.5827V5.45455H17.6111V14.4545ZM18.5997 8.72727C18.5997 7.26136 19.2474 6.27273 20.4747 6.27273C21.7531 6.27273 22.3838 7.34659 22.3838 8.72727C22.3838 10.125 21.7361 11.233 20.4747 11.233C19.2645 11.233 18.5997 10.2102 18.5997 8.72727ZM25.7369 14.4545C26.6446 14.4545 27.2838 13.973 27.6631 12.9545L30.45 5.47159L29.3506 5.45455L27.5438 10.6705H27.4756L25.6688 5.45455H24.5778L26.9983 12.0341L26.8108 12.5455C26.4443 13.5426 25.9926 13.6364 25.2597 13.4489L25.004 14.3352C25.1063 14.3864 25.396 14.4545 25.7369 14.4545ZM32.1806 12H33.1863V7.85795C33.1863 6.97159 33.8852 6.32386 34.8397 6.32386C35.1082 6.32386 35.3852 6.375 35.4533 6.39205V5.36932C35.3383 5.3608 35.0741 5.35227 34.9249 5.35227C34.1408 5.35227 33.459 5.79545 33.2204 6.44318H33.1522V5.45455H32.1806V12ZM37.0455 12H38.0511V5.45455H37.0455V12ZM37.5568 4.36364C37.9489 4.36364 38.2727 4.05682 38.2727 3.68182C38.2727 3.30682 37.9489 3 37.5568 3C37.1648 3 36.8409 3.30682 36.8409 3.68182C36.8409 4.05682 37.1648 4.36364 37.5568 4.36364ZM42.9352 14.5909C44.5033 14.5909 45.7647 13.875 45.7647 12.1875V5.45455H44.7931V6.49432H44.6908C44.4692 6.15341 44.0602 5.36932 42.7817 5.36932C41.1283 5.36932 39.9863 6.68182 39.9863 8.69318C39.9863 10.7386 41.1795 11.8977 42.7647 11.8977C44.0431 11.8977 44.4522 11.1477 44.6738 10.7898H44.759V12.1193C44.759 13.2102 43.992 13.7045 42.9352 13.7045C41.7462 13.7045 41.3286 13.0781 41.0602 12.7159L40.259 13.2784C40.6681 13.9645 41.4735 14.5909 42.9352 14.5909ZM42.9011 10.9943C41.6397 10.9943 40.992 10.0398 40.992 8.67614C40.992 7.34659 41.6227 6.27273 42.9011 6.27273C44.1283 6.27273 44.7761 7.26136 44.7761 8.67614C44.7761 10.125 44.1113 10.9943 42.9011 10.9943ZM49.0113 8.0625C49.0113 6.92045 49.74 6.27273 50.7329 6.27273C51.6789 6.27273 52.2499 6.86932 52.2499 7.90909V12H53.2556V7.84091C53.2556 6.15767 52.3607 5.36932 51.0227 5.36932C49.9914 5.36932 49.4033 5.79972 49.0965 6.47727H49.0113V3.27273H48.0056V12H49.0113V8.0625ZM58.342 5.45455H56.9443V3.88636H55.9386V5.45455H54.95V6.30682H55.9386V10.3977C55.9386 11.5398 56.8591 12.0852 57.7114 12.0852C58.0864 12.0852 58.325 12.017 58.4614 11.9659L58.2568 11.0625C58.1716 11.0795 58.0352 11.1136 57.8136 11.1136C57.3705 11.1136 56.9443 10.9773 56.9443 10.125V6.30682H58.342V5.45455ZM68.598 12.1364C71.0909 12.1364 73.1065 10.1207 73.098 7.63636C73.0895 5.15199 71.0909 3.13636 68.598 3.13636C66.1222 3.13636 64.1065 5.15199 64.098 7.63636C64.0895 10.1207 66.1222 12.1364 68.598 12.1364ZM68.598 11.1477C66.6591 11.1477 65.0781 9.56676 65.0866 7.64062C65.0952 5.7017 66.6676 4.125 68.598 4.125C70.5369 4.125 72.1009 5.69318 72.1094 7.64062C72.1179 9.57528 70.5455 11.1477 68.598 11.1477ZM66.1094 7.63636C66.1094 9.03409 67.2429 10.1676 68.6406 10.1676C69.8509 10.1676 70.7798 9.31534 70.9418 8.18182H69.9105C69.7912 8.76562 69.2969 9.17898 68.6406 9.17898C67.7884 9.17898 67.098 8.48864 67.098 7.63636C67.098 6.78409 67.7884 6.09375 68.6406 6.09375C69.2969 6.09375 69.8807 6.5071 69.9957 7.09091H71.027C70.8651 5.95739 69.8509 5.10511 68.6406 5.10511C67.2429 5.10511 66.1094 6.23864 66.1094 7.63636ZM85.0489 3.27273V8.96591C85.0489 10.2443 84.1711 11.1648 82.7137 11.1648C81.2563 11.1648 80.3785 10.2443 80.3785 8.96591V3.27273H79.3217V9.05114C79.3217 10.8409 80.6597 12.1534 82.7137 12.1534C84.7677 12.1534 86.1058 10.8409 86.1058 9.05114V3.27273H85.0489ZM93.1162 6.92045C92.8008 5.99148 92.0935 5.36932 90.798 5.36932C89.4173 5.36932 88.3946 6.15341 88.3946 7.26136C88.3946 8.16477 88.9315 8.76989 90.1332 9.05114L91.2241 9.30682C91.8847 9.46023 92.1957 9.77557 92.1957 10.2273C92.1957 10.7898 91.5991 11.25 90.6616 11.25C89.8392 11.25 89.3236 10.8963 89.1446 10.1932L88.1901 10.4318C88.4244 11.544 89.3406 12.1364 90.6787 12.1364C92.2 12.1364 93.2355 11.3054 93.2355 10.1761C93.2355 9.2642 92.6645 8.68892 91.4969 8.40341L90.5253 8.16477C89.7497 7.97301 89.4003 7.71307 89.4003 7.21023C89.4003 6.64773 89.9969 6.23864 90.798 6.23864C91.6758 6.23864 92.0381 6.72443 92.2128 7.17614L93.1162 6.92045ZM97.8937 12.1364C99.2232 12.1364 100.195 11.4716 100.502 10.483L99.53 10.2102C99.2744 10.892 98.682 11.233 97.8937 11.233C96.7133 11.233 95.8994 10.4702 95.8525 9.06818H100.604V8.64205C100.604 6.20455 99.155 5.36932 97.7914 5.36932C96.0187 5.36932 94.8425 6.76705 94.8425 8.77841C94.8425 10.7898 96.0016 12.1364 97.8937 12.1364ZM95.8525 8.19886C95.9207 7.1804 96.6408 6.27273 97.7914 6.27273C98.8823 6.27273 99.5812 7.09091 99.5812 8.19886H95.8525ZM102.534 12H103.539V7.85795C103.539 6.97159 104.238 6.32386 105.193 6.32386C105.461 6.32386 105.738 6.375 105.806 6.39205V5.36932C105.691 5.3608 105.427 5.35227 105.278 5.35227C104.494 5.35227 103.812 5.79545 103.574 6.44318H103.505V5.45455H102.534V12ZM110.655 5.45455H109.258V3.88636H108.252V5.45455H107.263V6.30682H108.252V10.3977C108.252 11.5398 109.172 12.0852 110.025 12.0852C110.4 12.0852 110.638 12.017 110.775 11.9659L110.57 11.0625C110.485 11.0795 110.349 11.1136 110.127 11.1136C109.684 11.1136 109.258 10.9773 109.258 10.125V6.30682H110.655V5.45455ZM112.568 12H113.574V5.45455H112.568V12ZM113.079 4.36364C113.472 4.36364 113.795 4.05682 113.795 3.68182C113.795 3.30682 113.472 3 113.079 3C112.687 3 112.364 3.30682 112.364 3.68182C112.364 4.05682 112.687 4.36364 113.079 4.36364ZM121.168 5.45455H120.077L118.27 10.6705H118.202L116.395 5.45455H115.304L117.725 12H118.748L121.168 5.45455ZM125.405 12.1364C126.735 12.1364 127.707 11.4716 128.013 10.483L127.042 10.2102C126.786 10.892 126.194 11.233 125.405 11.233C124.225 11.233 123.411 10.4702 123.364 9.06818H128.116V8.64205C128.116 6.20455 126.667 5.36932 125.303 5.36932C123.53 5.36932 122.354 6.76705 122.354 8.77841C122.354 10.7898 123.513 12.1364 125.405 12.1364ZM123.364 8.19886C123.432 7.1804 124.153 6.27273 125.303 6.27273C126.394 6.27273 127.093 7.09091 127.093 8.19886H123.364ZM136.292 12.1193C137.093 12.1193 137.988 11.8381 138.555 11.2585L139.173 12H140.383L139.177 10.5298C139.505 10.108 139.872 9.40057 139.872 8.18182H138.9C138.9 8.77841 138.764 9.30682 138.538 9.74574L136.641 7.43182L137.281 6.95455C137.997 6.42614 138.44 5.84659 138.44 5.01136C138.44 4.03977 137.639 3.1875 136.326 3.1875C135.048 3.1875 134.212 3.98864 134.212 5.16477C134.212 5.94034 134.634 6.53693 135.235 7.26136C134.217 7.96875 133.514 8.625 133.514 9.68182C133.514 11.0966 134.57 12.1193 136.292 12.1193ZM137.954 10.5298C137.472 10.9815 136.863 11.233 136.258 11.233C135.218 11.233 134.536 10.5 134.536 9.68182C134.536 9.44318 134.758 8.82955 135.542 8.25L135.866 8.01136L137.954 10.5298ZM136.024 6.68182C135.597 6.16193 135.235 5.66761 135.235 5.18182C135.235 4.63636 135.695 4.05682 136.36 4.05682C136.991 4.05682 137.417 4.56818 137.417 5.01136C137.417 5.60795 137.093 5.93182 136.599 6.25568L136.024 6.68182ZM150.58 5.45455H151.603C151.556 4.13778 150.342 3.15341 148.654 3.15341C146.984 3.15341 145.671 4.125 145.671 5.59091C145.671 6.76705 146.524 7.46591 147.887 7.85795L148.961 8.16477C149.881 8.42045 150.7 8.74432 150.7 9.61364C150.7 10.5682 149.779 11.1989 148.569 11.1989C147.529 11.1989 146.609 10.7386 146.524 9.75H145.433C145.535 11.1818 146.694 12.1534 148.569 12.1534C150.58 12.1534 151.722 11.0455 151.722 9.63068C151.722 7.99432 150.171 7.46591 149.268 7.22727L148.381 6.98864C147.734 6.81818 146.694 6.47727 146.694 5.53977C146.694 4.70455 147.461 4.09091 148.62 4.09091C149.677 4.09091 150.478 4.59375 150.58 5.45455ZM153.724 14.4545H154.729V10.9943H154.814C155.036 11.3523 155.462 12.1364 156.724 12.1364C158.36 12.1364 159.502 10.8239 159.502 8.74432C159.502 6.68182 158.36 5.36932 156.707 5.36932C155.428 5.36932 155.036 6.15341 154.814 6.49432H154.695V5.45455H153.724V14.4545ZM154.712 8.72727C154.712 7.26136 155.36 6.27273 156.587 6.27273C157.866 6.27273 158.496 7.34659 158.496 8.72727C158.496 10.125 157.849 11.233 156.587 11.233C155.377 11.233 154.712 10.2102 154.712 8.72727ZM163.362 12.1534C164.504 12.1534 165.101 11.5398 165.305 11.1136H165.357V12H166.362V7.6875C166.362 5.60795 164.777 5.36932 163.942 5.36932C162.953 5.36932 161.828 5.71023 161.317 6.90341L162.271 7.24432C162.493 6.76705 163.017 6.25568 163.976 6.25568C164.901 6.25568 165.357 6.74574 165.357 7.58523V7.61932C165.357 8.10511 164.862 8.0625 163.669 8.21591C162.455 8.37358 161.129 8.64205 161.129 10.142C161.129 11.4205 162.118 12.1534 163.362 12.1534ZM163.516 11.25C162.714 11.25 162.135 10.892 162.135 10.1932C162.135 9.42614 162.834 9.1875 163.618 9.08523C164.044 9.03409 165.186 8.91477 165.357 8.71023V9.63068C165.357 10.4489 164.709 11.25 163.516 11.25ZM171.257 12.1364C172.706 12.1364 173.66 11.25 173.831 10.0909H172.825C172.638 10.8068 172.041 11.233 171.257 11.233C170.064 11.233 169.297 10.2443 169.297 8.72727C169.297 7.24432 170.081 6.27273 171.257 6.27273C172.143 6.27273 172.672 6.81818 172.825 7.41477H173.831C173.66 6.1875 172.621 5.36932 171.24 5.36932C169.467 5.36932 168.291 6.76705 168.291 8.76136C168.291 10.7216 169.416 12.1364 171.257 12.1364ZM178.445 12.1364C179.775 12.1364 180.746 11.4716 181.053 10.483L180.082 10.2102C179.826 10.892 179.234 11.233 178.445 11.233C177.265 11.233 176.451 10.4702 176.404 9.06818H181.155V8.64205C181.155 6.20455 179.707 5.36932 178.343 5.36932C176.57 5.36932 175.394 6.76705 175.394 8.77841C175.394 10.7898 176.553 12.1364 178.445 12.1364ZM176.404 8.19886C176.472 7.1804 177.192 6.27273 178.343 6.27273C179.434 6.27273 180.133 7.09091 180.133 8.19886H176.404ZM183.733 3.27273H182.489L185.301 7.63636L182.489 12H183.733L185.983 8.4375H186.051L188.301 12H189.546L186.801 7.63636L189.546 3.27273H188.301L186.051 6.90341H185.983L183.733 3.27273ZM195.454 12L196.332 9.52841H199.86L200.738 12H201.846L198.641 3.27273H197.55L194.346 12H195.454ZM196.664 8.59091L198.062 4.65341H198.13L199.528 8.59091H196.664ZM203.605 12H204.662V8.8125H206.571C208.604 8.8125 209.52 7.5767 209.52 6.03409C209.52 4.49148 208.604 3.27273 206.554 3.27273H203.605V12ZM204.662 7.875V4.21023H206.52C207.939 4.21023 208.48 4.9858 208.48 6.03409C208.48 7.08239 207.939 7.875 206.537 7.875H204.662ZM212.679 3.27273H211.622V12H212.679V3.27273Z" fill="#8D7FBC"/>
<path d="M917.057 12H918.114V8.59091H920.023C920.099 8.59091 920.172 8.59091 920.244 8.58665L922.085 12H923.312L921.339 8.39489C922.452 8.01562 922.972 7.10795 922.972 5.94886C922.972 4.40625 922.051 3.27273 920.006 3.27273H917.057V12ZM918.114 7.63636V4.21023H919.972C921.386 4.21023 921.932 4.90057 921.932 5.94886C921.932 6.99716 921.386 7.63636 919.989 7.63636H918.114ZM927.67 12.1364C929 12.1364 929.971 11.4716 930.278 10.483L929.307 10.2102C929.051 10.892 928.459 11.233 927.67 11.233C926.49 11.233 925.676 10.4702 925.629 9.06818H930.38V8.64205C930.38 6.20455 928.932 5.36932 927.568 5.36932C925.795 5.36932 924.619 6.76705 924.619 8.77841C924.619 10.7898 925.778 12.1364 927.67 12.1364ZM925.629 8.19886C925.697 7.1804 926.417 6.27273 927.568 6.27273C928.659 6.27273 929.358 7.09091 929.358 8.19886H925.629ZM934.969 12.1364C936.418 12.1364 937.373 11.25 937.543 10.0909H936.538C936.35 10.8068 935.753 11.233 934.969 11.233C933.776 11.233 933.009 10.2443 933.009 8.72727C933.009 7.24432 933.793 6.27273 934.969 6.27273C935.856 6.27273 936.384 6.81818 936.538 7.41477H937.543C937.373 6.1875 936.333 5.36932 934.952 5.36932C933.18 5.36932 932.003 6.76705 932.003 8.76136C932.003 10.7216 933.128 12.1364 934.969 12.1364ZM939.413 12H940.419V7.85795C940.419 6.97159 941.118 6.32386 942.073 6.32386C942.341 6.32386 942.618 6.375 942.686 6.39205V5.36932C942.571 5.3608 942.307 5.35227 942.158 5.35227C941.374 5.35227 940.692 5.79545 940.453 6.44318H940.385V5.45455H939.413V12ZM948.403 9.32386C948.403 10.5511 947.466 11.1136 946.716 11.1136C945.881 11.1136 945.284 10.5 945.284 9.54545V5.45455H944.278V9.61364C944.278 11.2841 945.165 12.0852 946.392 12.0852C947.381 12.0852 948.028 11.5568 948.335 10.892H948.403V12H949.409V5.45455H948.403V9.32386ZM951.651 12H952.657V5.45455H951.651V12ZM952.162 4.36364C952.554 4.36364 952.878 4.05682 952.878 3.68182C952.878 3.30682 952.554 3 952.162 3C951.77 3 951.446 3.30682 951.446 3.68182C951.446 4.05682 951.77 4.36364 952.162 4.36364ZM954.899 12H955.904V7.90909C955.904 6.95028 956.603 6.27273 957.387 6.27273C958.15 6.27273 958.683 6.77131 958.683 7.51705V12H959.705V7.73864C959.705 6.89489 960.234 6.27273 961.154 6.27273C961.87 6.27273 962.484 6.65199 962.484 7.61932V12H963.489V7.61932C963.489 6.08097 962.663 5.36932 961.495 5.36932C960.558 5.36932 959.872 5.79972 959.535 6.47727H959.467C959.143 5.77841 958.572 5.36932 957.711 5.36932C956.859 5.36932 956.228 5.77841 955.955 6.47727H955.87V5.45455H954.899V12ZM968.473 12.1364C969.802 12.1364 970.774 11.4716 971.081 10.483L970.109 10.2102C969.853 10.892 969.261 11.233 968.473 11.233C967.292 11.233 966.478 10.4702 966.431 9.06818H971.183V8.64205C971.183 6.20455 969.734 5.36932 968.37 5.36932C966.598 5.36932 965.421 6.76705 965.421 8.77841C965.421 10.7898 966.581 12.1364 968.473 12.1364ZM966.431 8.19886C966.5 7.1804 967.22 6.27273 968.37 6.27273C969.461 6.27273 970.16 7.09091 970.16 8.19886H966.431ZM974.118 8.0625C974.118 6.92045 974.826 6.27273 975.789 6.27273C976.722 6.27273 977.289 6.8821 977.289 7.90909V12H978.294V7.84091C978.294 6.17045 977.404 5.36932 976.079 5.36932C975.09 5.36932 974.476 5.8125 974.169 6.47727H974.084V5.45455H973.113V12H974.118V8.0625ZM983.379 5.45455H981.981V3.88636H980.975V5.45455H979.987V6.30682H980.975V10.3977C980.975 11.5398 981.896 12.0852 982.748 12.0852C983.123 12.0852 983.362 12.017 983.498 11.9659L983.294 11.0625C983.208 11.0795 983.072 11.1136 982.85 11.1136C982.407 11.1136 981.981 10.9773 981.981 10.125V6.30682H983.379V5.45455ZM988.726 4.21023H991.47V12H992.527V4.21023H995.271V3.27273H988.726V4.21023ZM998.201 12.1534C999.343 12.1534 999.94 11.5398 1000.14 11.1136H1000.2V12H1001.2V7.6875C1001.2 5.60795 999.616 5.36932 998.781 5.36932C997.792 5.36932 996.667 5.71023 996.156 6.90341L997.11 7.24432C997.332 6.76705 997.856 6.25568 998.815 6.25568C999.74 6.25568 1000.2 6.74574 1000.2 7.58523V7.61932C1000.2 8.10511 999.701 8.0625 998.508 8.21591C997.294 8.37358 995.968 8.64205 995.968 10.142C995.968 11.4205 996.957 12.1534 998.201 12.1534ZM998.355 11.25C997.554 11.25 996.974 10.892 996.974 10.1932C996.974 9.42614 997.673 9.1875 998.457 9.08523C998.883 9.03409 1000.03 8.91477 1000.2 8.71023V9.63068C1000.2 10.4489 999.548 11.25 998.355 11.25ZM1008.07 6.92045C1007.76 5.99148 1007.05 5.36932 1005.76 5.36932C1004.37 5.36932 1003.35 6.15341 1003.35 7.26136C1003.35 8.16477 1003.89 8.76989 1005.09 9.05114L1006.18 9.30682C1006.84 9.46023 1007.15 9.77557 1007.15 10.2273C1007.15 10.7898 1006.56 11.25 1005.62 11.25C1004.8 11.25 1004.28 10.8963 1004.1 10.1932L1003.15 10.4318C1003.38 11.544 1004.3 12.1364 1005.64 12.1364C1007.16 12.1364 1008.19 11.3054 1008.19 10.1761C1008.19 9.2642 1007.62 8.68892 1006.45 8.40341L1005.48 8.16477C1004.71 7.97301 1004.36 7.71307 1004.36 7.21023C1004.36 6.64773 1004.95 6.23864 1005.76 6.23864C1006.63 6.23864 1007 6.72443 1007.17 7.17614L1008.07 6.92045ZM1010.11 12H1011.11V9.54972L1011.82 8.89773L1014.27 12H1015.54L1012.57 8.25L1015.34 5.45455H1014.1L1011.23 8.36932H1011.11V3.27273H1010.11V12ZM1023.89 2.86364H1022.97L1020.16 13.3125H1021.08L1023.89 2.86364ZM1034.17 5.45455H1035.19C1035.15 4.13778 1033.93 3.15341 1032.24 3.15341C1030.57 3.15341 1029.26 4.125 1029.26 5.59091C1029.26 6.76705 1030.11 7.46591 1031.48 7.85795L1032.55 8.16477C1033.47 8.42045 1034.29 8.74432 1034.29 9.61364C1034.29 10.5682 1033.37 11.1989 1032.16 11.1989C1031.12 11.1989 1030.2 10.7386 1030.11 9.75H1029.02C1029.12 11.1818 1030.28 12.1534 1032.16 12.1534C1034.17 12.1534 1035.31 11.0455 1035.31 9.63068C1035.31 7.99432 1033.76 7.46591 1032.86 7.22727L1031.97 6.98864C1031.32 6.81818 1030.28 6.47727 1030.28 5.53977C1030.28 4.70455 1031.05 4.09091 1032.21 4.09091C1033.27 4.09091 1034.07 4.59375 1034.17 5.45455ZM1041.44 9.32386C1041.44 10.5511 1040.5 11.1136 1039.75 11.1136C1038.92 11.1136 1038.32 10.5 1038.32 9.54545V5.45455H1037.31V9.61364C1037.31 11.2841 1038.2 12.0852 1039.43 12.0852C1040.42 12.0852 1041.06 11.5568 1041.37 10.892H1041.44V12H1042.44V5.45455H1041.44V9.32386ZM1044.69 12H1045.69V7.90909C1045.69 6.95028 1046.39 6.27273 1047.17 6.27273C1047.94 6.27273 1048.47 6.77131 1048.47 7.51705V12H1049.49V7.73864C1049.49 6.89489 1050.02 6.27273 1050.94 6.27273C1051.66 6.27273 1052.27 6.65199 1052.27 7.61932V12H1053.28V7.61932C1053.28 6.08097 1052.45 5.36932 1051.28 5.36932C1050.35 5.36932 1049.66 5.79972 1049.32 6.47727H1049.25C1048.93 5.77841 1048.36 5.36932 1047.5 5.36932C1046.65 5.36932 1046.02 5.77841 1045.74 6.47727H1045.66V5.45455H1044.69V12ZM1055.52 12H1056.52V7.90909C1056.52 6.95028 1057.22 6.27273 1058 6.27273C1058.77 6.27273 1059.3 6.77131 1059.3 7.51705V12H1060.32V7.73864C1060.32 6.89489 1060.85 6.27273 1061.77 6.27273C1062.49 6.27273 1063.1 6.65199 1063.1 7.61932V12H1064.11V7.61932C1064.11 6.08097 1063.28 5.36932 1062.11 5.36932C1061.17 5.36932 1060.49 5.79972 1060.15 6.47727H1060.08C1059.76 5.77841 1059.19 5.36932 1058.33 5.36932C1057.48 5.36932 1056.85 5.77841 1056.57 6.47727H1056.49V5.45455H1055.52V12ZM1069.09 12.1364C1070.42 12.1364 1071.39 11.4716 1071.7 10.483L1070.73 10.2102C1070.47 10.892 1069.88 11.233 1069.09 11.233C1067.91 11.233 1067.1 10.4702 1067.05 9.06818H1071.8V8.64205C1071.8 6.20455 1070.35 5.36932 1068.99 5.36932C1067.21 5.36932 1066.04 6.76705 1066.04 8.77841C1066.04 10.7898 1067.2 12.1364 1069.09 12.1364ZM1067.05 8.19886C1067.12 7.1804 1067.84 6.27273 1068.99 6.27273C1070.08 6.27273 1070.78 7.09091 1070.78 8.19886H1067.05ZM1073.73 12H1074.74V7.85795C1074.74 6.97159 1075.43 6.32386 1076.39 6.32386C1076.66 6.32386 1076.93 6.375 1077 6.39205V5.36932C1076.89 5.3608 1076.62 5.35227 1076.47 5.35227C1075.69 5.35227 1075.01 5.79545 1074.77 6.44318H1074.7V5.45455H1073.73V12ZM1082.35 12H1087.86V11.0625H1083.8V10.9943L1085.76 8.89773C1087.26 7.29119 1087.7 6.54119 1087.7 5.57386C1087.7 4.22727 1086.61 3.15341 1085.08 3.15341C1083.55 3.15341 1082.39 4.19318 1082.39 5.72727H1083.39C1083.39 4.73438 1084.04 4.07386 1085.05 4.07386C1085.99 4.07386 1086.72 4.65341 1086.72 5.57386C1086.72 6.37926 1086.24 6.97585 1085.23 8.07955L1082.35 11.233V12ZM1092.86 12.1193C1094.79 12.1193 1095.9 10.4872 1095.9 7.63636C1095.9 4.80682 1094.77 3.15341 1092.86 3.15341C1090.96 3.15341 1089.83 4.80682 1089.83 7.63636C1089.83 10.4872 1090.94 12.1193 1092.86 12.1193ZM1092.86 11.1818C1091.59 11.1818 1090.85 9.90767 1090.85 7.63636C1090.85 5.36932 1091.6 4.07386 1092.86 4.07386C1094.13 4.07386 1094.88 5.36932 1094.88 7.63636C1094.88 9.90767 1094.13 11.1818 1092.86 11.1818ZM1097.92 12H1103.42V11.0625H1099.37V10.9943L1101.33 8.89773C1102.83 7.29119 1103.27 6.54119 1103.27 5.57386C1103.27 4.22727 1102.18 3.15341 1100.65 3.15341C1099.12 3.15341 1097.95 4.19318 1097.95 5.72727H1098.96C1098.96 4.73438 1099.6 4.07386 1100.61 4.07386C1101.56 4.07386 1102.28 4.65341 1102.28 5.57386C1102.28 6.37926 1101.81 6.97585 1100.8 8.07955L1097.92 11.233V12ZM1108.65 3.27273H1107.6L1105.41 4.72159V5.79545L1107.54 4.38068H1107.6V12H1108.65V3.27273Z" fill="#8D7FBC"/>
</svg>
