<svg width="213" height="12" viewBox="0 0 213 12" fill="none" xmlns="http://www.w3.org/2000/svg">
<path d="M8.07955 3C7.75568 1.21023 6.32386 0.153409 4.56818 0.153409C2.33523 0.153409 0.715909 1.875 0.715909 4.63636C0.715909 7.39773 2.33523 9.11932 4.56818 9.11932C6.32386 9.11932 7.75568 8.0625 8.07955 6.27273H7.02273C6.76705 7.48295 5.72727 8.13068 4.56818 8.13068C2.98295 8.13068 1.73864 6.90341 1.73864 4.63636C1.73864 2.36932 2.98295 1.14205 4.56818 1.14205C5.72727 1.14205 6.76705 1.78977 7.02273 3H8.07955ZM12.71 9.13636C14.4827 9.13636 15.6759 7.78977 15.6759 5.76136C15.6759 3.71591 14.4827 2.36932 12.71 2.36932C10.9373 2.36932 9.7441 3.71591 9.7441 5.76136C9.7441 7.78977 10.9373 9.13636 12.71 9.13636ZM12.71 8.23295C11.3634 8.23295 10.7498 7.07386 10.7498 5.76136C10.7498 4.44886 11.3634 3.27273 12.71 3.27273C14.0566 3.27273 14.6702 4.44886 14.6702 5.76136C14.6702 7.07386 14.0566 8.23295 12.71 8.23295ZM17.6111 11.4545H18.6168V7.99432H18.702C18.9236 8.35227 19.3497 9.13636 20.6111 9.13636C22.2474 9.13636 23.3895 7.82386 23.3895 5.74432C23.3895 3.68182 22.2474 2.36932 20.594 2.36932C19.3156 2.36932 18.9236 3.15341 18.702 3.49432H18.5827V2.45455H17.6111V11.4545ZM18.5997 5.72727C18.5997 4.26136 19.2474 3.27273 20.4747 3.27273C21.7531 3.27273 22.3838 4.34659 22.3838 5.72727C22.3838 7.125 21.7361 8.23295 20.4747 8.23295C19.2645 8.23295 18.5997 7.21023 18.5997 5.72727ZM25.7369 11.4545C26.6446 11.4545 27.2838 10.973 27.6631 9.95455L30.45 2.47159L29.3506 2.45455L27.5438 7.67045H27.4756L25.6688 2.45455H24.5778L26.9983 9.03409L26.8108 9.54545C26.4443 10.5426 25.9926 10.6364 25.2597 10.4489L25.004 11.3352C25.1063 11.3864 25.396 11.4545 25.7369 11.4545ZM32.1806 9H33.1863V4.85795C33.1863 3.97159 33.8852 3.32386 34.8397 3.32386C35.1082 3.32386 35.3852 3.375 35.4533 3.39205V2.36932C35.3383 2.3608 35.0741 2.35227 34.9249 2.35227C34.1408 2.35227 33.459 2.79545 33.2204 3.44318H33.1522V2.45455H32.1806V9ZM37.0455 9H38.0511V2.45455H37.0455V9ZM37.5568 1.36364C37.9489 1.36364 38.2727 1.05682 38.2727 0.681818C38.2727 0.306818 37.9489 0 37.5568 0C37.1648 0 36.8409 0.306818 36.8409 0.681818C36.8409 1.05682 37.1648 1.36364 37.5568 1.36364ZM42.9352 11.5909C44.5033 11.5909 45.7647 10.875 45.7647 9.1875V2.45455H44.7931V3.49432H44.6908C44.4692 3.15341 44.0602 2.36932 42.7817 2.36932C41.1283 2.36932 39.9863 3.68182 39.9863 5.69318C39.9863 7.73864 41.1795 8.89773 42.7647 8.89773C44.0431 8.89773 44.4522 8.14773 44.6738 7.78977H44.759V9.11932C44.759 10.2102 43.992 10.7045 42.9352 10.7045C41.7462 10.7045 41.3286 10.0781 41.0602 9.71591L40.259 10.2784C40.6681 10.9645 41.4735 11.5909 42.9352 11.5909ZM42.9011 7.99432C41.6397 7.99432 40.992 7.03977 40.992 5.67614C40.992 4.34659 41.6227 3.27273 42.9011 3.27273C44.1283 3.27273 44.7761 4.26136 44.7761 5.67614C44.7761 7.125 44.1113 7.99432 42.9011 7.99432ZM49.0113 5.0625C49.0113 3.92045 49.74 3.27273 50.7329 3.27273C51.6789 3.27273 52.2499 3.86932 52.2499 4.90909V9H53.2556V4.84091C53.2556 3.15767 52.3607 2.36932 51.0227 2.36932C49.9914 2.36932 49.4033 2.79972 49.0965 3.47727H49.0113V0.272727H48.0056V9H49.0113V5.0625ZM58.342 2.45455H56.9443V0.886364H55.9386V2.45455H54.95V3.30682H55.9386V7.39773C55.9386 8.53977 56.8591 9.08523 57.7114 9.08523C58.0864 9.08523 58.325 9.01705 58.4614 8.96591L58.2568 8.0625C58.1716 8.07955 58.0352 8.11364 57.8136 8.11364C57.3705 8.11364 56.9443 7.97727 56.9443 7.125V3.30682H58.342V2.45455ZM68.598 9.13636C71.0909 9.13636 73.1065 7.12074 73.098 4.63636C73.0895 2.15199 71.0909 0.136364 68.598 0.136364C66.1222 0.136364 64.1065 2.15199 64.098 4.63636C64.0895 7.12074 66.1222 9.13636 68.598 9.13636ZM68.598 8.14773C66.6591 8.14773 65.0781 6.56676 65.0866 4.64062C65.0952 2.7017 66.6676 1.125 68.598 1.125C70.5369 1.125 72.1009 2.69318 72.1094 4.64062C72.1179 6.57528 70.5455 8.14773 68.598 8.14773ZM66.1094 4.63636C66.1094 6.03409 67.2429 7.16761 68.6406 7.16761C69.8509 7.16761 70.7798 6.31534 70.9418 5.18182H69.9105C69.7912 5.76562 69.2969 6.17898 68.6406 6.17898C67.7884 6.17898 67.098 5.48864 67.098 4.63636C67.098 3.78409 67.7884 3.09375 68.6406 3.09375C69.2969 3.09375 69.8807 3.5071 69.9957 4.09091H71.027C70.8651 2.95739 69.8509 2.10511 68.6406 2.10511C67.2429 2.10511 66.1094 3.23864 66.1094 4.63636ZM85.0489 0.272727V5.96591C85.0489 7.24432 84.1711 8.16477 82.7137 8.16477C81.2563 8.16477 80.3785 7.24432 80.3785 5.96591V0.272727H79.3217V6.05114C79.3217 7.84091 80.6597 9.15341 82.7137 9.15341C84.7677 9.15341 86.1058 7.84091 86.1058 6.05114V0.272727H85.0489ZM93.1162 3.92045C92.8008 2.99148 92.0935 2.36932 90.798 2.36932C89.4173 2.36932 88.3946 3.15341 88.3946 4.26136C88.3946 5.16477 88.9315 5.76989 90.1332 6.05114L91.2241 6.30682C91.8847 6.46023 92.1957 6.77557 92.1957 7.22727C92.1957 7.78977 91.5991 8.25 90.6616 8.25C89.8392 8.25 89.3236 7.89631 89.1446 7.19318L88.1901 7.43182C88.4244 8.54403 89.3406 9.13636 90.6787 9.13636C92.2 9.13636 93.2355 8.3054 93.2355 7.17614C93.2355 6.2642 92.6645 5.68892 91.4969 5.40341L90.5253 5.16477C89.7497 4.97301 89.4003 4.71307 89.4003 4.21023C89.4003 3.64773 89.9969 3.23864 90.798 3.23864C91.6758 3.23864 92.0381 3.72443 92.2128 4.17614L93.1162 3.92045ZM97.8937 9.13636C99.2232 9.13636 100.195 8.47159 100.502 7.48295L99.53 7.21023C99.2744 7.89205 98.682 8.23295 97.8937 8.23295C96.7133 8.23295 95.8994 7.47017 95.8525 6.06818H100.604V5.64205C100.604 3.20455 99.155 2.36932 97.7914 2.36932C96.0187 2.36932 94.8425 3.76705 94.8425 5.77841C94.8425 7.78977 96.0016 9.13636 97.8937 9.13636ZM95.8525 5.19886C95.9207 4.1804 96.6408 3.27273 97.7914 3.27273C98.8823 3.27273 99.5812 4.09091 99.5812 5.19886H95.8525ZM102.534 9H103.539V4.85795C103.539 3.97159 104.238 3.32386 105.193 3.32386C105.461 3.32386 105.738 3.375 105.806 3.39205V2.36932C105.691 2.3608 105.427 2.35227 105.278 2.35227C104.494 2.35227 103.812 2.79545 103.574 3.44318H103.505V2.45455H102.534V9ZM110.655 2.45455H109.258V0.886364H108.252V2.45455H107.263V3.30682H108.252V7.39773C108.252 8.53977 109.172 9.08523 110.025 9.08523C110.4 9.08523 110.638 9.01705 110.775 8.96591L110.57 8.0625C110.485 8.07955 110.349 8.11364 110.127 8.11364C109.684 8.11364 109.258 7.97727 109.258 7.125V3.30682H110.655V2.45455ZM112.568 9H113.574V2.45455H112.568V9ZM113.079 1.36364C113.472 1.36364 113.795 1.05682 113.795 0.681818C113.795 0.306818 113.472 0 113.079 0C112.687 0 112.364 0.306818 112.364 0.681818C112.364 1.05682 112.687 1.36364 113.079 1.36364ZM121.168 2.45455H120.077L118.27 7.67045H118.202L116.395 2.45455H115.304L117.725 9H118.748L121.168 2.45455ZM125.405 9.13636C126.735 9.13636 127.707 8.47159 128.013 7.48295L127.042 7.21023C126.786 7.89205 126.194 8.23295 125.405 8.23295C124.225 8.23295 123.411 7.47017 123.364 6.06818H128.116V5.64205C128.116 3.20455 126.667 2.36932 125.303 2.36932C123.53 2.36932 122.354 3.76705 122.354 5.77841C122.354 7.78977 123.513 9.13636 125.405 9.13636ZM123.364 5.19886C123.432 4.1804 124.153 3.27273 125.303 3.27273C126.394 3.27273 127.093 4.09091 127.093 5.19886H123.364ZM136.292 9.11932C137.093 9.11932 137.988 8.83807 138.555 8.25852L139.173 9H140.383L139.177 7.52983C139.505 7.10795 139.872 6.40057 139.872 5.18182H138.9C138.9 5.77841 138.764 6.30682 138.538 6.74574L136.641 4.43182L137.281 3.95455C137.997 3.42614 138.44 2.84659 138.44 2.01136C138.44 1.03977 137.639 0.1875 136.326 0.1875C135.048 0.1875 134.212 0.988636 134.212 2.16477C134.212 2.94034 134.634 3.53693 135.235 4.26136C134.217 4.96875 133.514 5.625 133.514 6.68182C133.514 8.09659 134.57 9.11932 136.292 9.11932ZM137.954 7.52983C137.472 7.98153 136.863 8.23295 136.258 8.23295C135.218 8.23295 134.536 7.5 134.536 6.68182C134.536 6.44318 134.758 5.82955 135.542 5.25L135.866 5.01136L137.954 7.52983ZM136.024 3.68182C135.597 3.16193 135.235 2.66761 135.235 2.18182C135.235 1.63636 135.695 1.05682 136.36 1.05682C136.991 1.05682 137.417 1.56818 137.417 2.01136C137.417 2.60795 137.093 2.93182 136.599 3.25568L136.024 3.68182ZM150.58 2.45455H151.603C151.556 1.13778 150.342 0.153409 148.654 0.153409C146.984 0.153409 145.671 1.125 145.671 2.59091C145.671 3.76705 146.524 4.46591 147.887 4.85795L148.961 5.16477C149.881 5.42045 150.7 5.74432 150.7 6.61364C150.7 7.56818 149.779 8.19886 148.569 8.19886C147.529 8.19886 146.609 7.73864 146.524 6.75H145.433C145.535 8.18182 146.694 9.15341 148.569 9.15341C150.58 9.15341 151.722 8.04545 151.722 6.63068C151.722 4.99432 150.171 4.46591 149.268 4.22727L148.381 3.98864C147.734 3.81818 146.694 3.47727 146.694 2.53977C146.694 1.70455 147.461 1.09091 148.62 1.09091C149.677 1.09091 150.478 1.59375 150.58 2.45455ZM153.724 11.4545H154.729V7.99432H154.814C155.036 8.35227 155.462 9.13636 156.724 9.13636C158.36 9.13636 159.502 7.82386 159.502 5.74432C159.502 3.68182 158.36 2.36932 156.707 2.36932C155.428 2.36932 155.036 3.15341 154.814 3.49432H154.695V2.45455H153.724V11.4545ZM154.712 5.72727C154.712 4.26136 155.36 3.27273 156.587 3.27273C157.866 3.27273 158.496 4.34659 158.496 5.72727C158.496 7.125 157.849 8.23295 156.587 8.23295C155.377 8.23295 154.712 7.21023 154.712 5.72727ZM163.362 9.15341C164.504 9.15341 165.101 8.53977 165.305 8.11364H165.357V9H166.362V4.6875C166.362 2.60795 164.777 2.36932 163.942 2.36932C162.953 2.36932 161.828 2.71023 161.317 3.90341L162.271 4.24432C162.493 3.76705 163.017 3.25568 163.976 3.25568C164.901 3.25568 165.357 3.74574 165.357 4.58523V4.61932C165.357 5.10511 164.862 5.0625 163.669 5.21591C162.455 5.37358 161.129 5.64205 161.129 7.14205C161.129 8.42045 162.118 9.15341 163.362 9.15341ZM163.516 8.25C162.714 8.25 162.135 7.89205 162.135 7.19318C162.135 6.42614 162.834 6.1875 163.618 6.08523C164.044 6.03409 165.186 5.91477 165.357 5.71023V6.63068C165.357 7.44886 164.709 8.25 163.516 8.25ZM171.257 9.13636C172.706 9.13636 173.66 8.25 173.831 7.09091H172.825C172.638 7.80682 172.041 8.23295 171.257 8.23295C170.064 8.23295 169.297 7.24432 169.297 5.72727C169.297 4.24432 170.081 3.27273 171.257 3.27273C172.143 3.27273 172.672 3.81818 172.825 4.41477H173.831C173.66 3.1875 172.621 2.36932 171.24 2.36932C169.467 2.36932 168.291 3.76705 168.291 5.76136C168.291 7.72159 169.416 9.13636 171.257 9.13636ZM178.445 9.13636C179.775 9.13636 180.746 8.47159 181.053 7.48295L180.082 7.21023C179.826 7.89205 179.234 8.23295 178.445 8.23295C177.265 8.23295 176.451 7.47017 176.404 6.06818H181.155V5.64205C181.155 3.20455 179.707 2.36932 178.343 2.36932C176.57 2.36932 175.394 3.76705 175.394 5.77841C175.394 7.78977 176.553 9.13636 178.445 9.13636ZM176.404 5.19886C176.472 4.1804 177.192 3.27273 178.343 3.27273C179.434 3.27273 180.133 4.09091 180.133 5.19886H176.404ZM183.733 0.272727H182.489L185.301 4.63636L182.489 9H183.733L185.983 5.4375H186.051L188.301 9H189.546L186.801 4.63636L189.546 0.272727H188.301L186.051 3.90341H185.983L183.733 0.272727ZM195.454 9L196.332 6.52841H199.86L200.738 9H201.846L198.641 0.272727H197.55L194.346 9H195.454ZM196.664 5.59091L198.062 1.65341H198.13L199.528 5.59091H196.664ZM203.605 9H204.662V5.8125H206.571C208.604 5.8125 209.52 4.5767 209.52 3.03409C209.52 1.49148 208.604 0.272727 206.554 0.272727H203.605V9ZM204.662 4.875V1.21023H206.52C207.939 1.21023 208.48 1.9858 208.48 3.03409C208.48 4.08239 207.939 4.875 206.537 4.875H204.662ZM212.679 0.272727H211.622V9H212.679V0.272727Z" fill="#8D7FBC"/>
</svg>
