<svg width="192" height="12" viewBox="0 0 192 12" fill="none" xmlns="http://www.w3.org/2000/svg">
<path d="M0.0568182 10H1.11364V6.59091H3.02273C3.09943 6.59091 3.17188 6.59091 3.24432 6.58665L5.08523 10H6.3125L4.33949 6.39489C5.4517 6.01562 5.97159 5.10795 5.97159 3.94886C5.97159 2.40625 5.05114 1.27273 3.00568 1.27273H0.0568182V10ZM1.11364 5.63636V2.21023H2.97159C4.38636 2.21023 4.93182 2.90057 4.93182 3.94886C4.93182 4.99716 4.38636 5.63636 2.98864 5.63636H1.11364ZM10.6702 10.1364C11.9998 10.1364 12.9714 9.47159 13.2782 8.48295L12.3066 8.21023C12.0509 8.89205 11.4586 9.23295 10.6702 9.23295C9.48984 9.23295 8.67592 8.47017 8.62905 7.06818H13.3805V6.64205C13.3805 4.20455 11.9316 3.36932 10.568 3.36932C8.79524 3.36932 7.6191 4.76705 7.6191 6.77841C7.6191 8.78977 8.7782 10.1364 10.6702 10.1364ZM8.62905 6.19886C8.69723 5.1804 9.4174 4.27273 10.568 4.27273C11.6589 4.27273 12.3577 5.09091 12.3577 6.19886H8.62905ZM17.9694 10.1364C19.4183 10.1364 20.3728 9.25 20.5433 8.09091H19.5376C19.3501 8.80682 18.7535 9.23295 17.9694 9.23295C16.7762 9.23295 16.0092 8.24432 16.0092 6.72727C16.0092 5.24432 16.7933 4.27273 17.9694 4.27273C18.8558 4.27273 19.3842 4.81818 19.5376 5.41477H20.5433C20.3728 4.1875 19.333 3.36932 17.9523 3.36932C16.1796 3.36932 15.0035 4.76705 15.0035 6.76136C15.0035 8.72159 16.1285 10.1364 17.9694 10.1364ZM22.4134 10H23.4191V5.85795C23.4191 4.97159 24.118 4.32386 25.0725 4.32386C25.341 4.32386 25.618 4.375 25.6862 4.39205V3.36932C25.5711 3.3608 25.3069 3.35227 25.1577 3.35227C24.3737 3.35227 23.6918 3.79545 23.4532 4.44318H23.385V3.45455H22.4134V10ZM31.4033 7.32386C31.4033 8.55114 30.4658 9.11364 29.7158 9.11364C28.8805 9.11364 28.2839 8.5 28.2839 7.54545V3.45455H27.2783V7.61364C27.2783 9.28409 28.1646 10.0852 29.3919 10.0852C30.3805 10.0852 31.0283 9.55682 31.3351 8.89205H31.4033V10H32.4089V3.45455H31.4033V7.32386ZM34.6509 10H35.6566V3.45455H34.6509V10ZM35.1623 2.36364C35.5543 2.36364 35.8782 2.05682 35.8782 1.68182C35.8782 1.30682 35.5543 1 35.1623 1C34.7702 1 34.4464 1.30682 34.4464 1.68182C34.4464 2.05682 34.7702 2.36364 35.1623 2.36364ZM37.8986 10H38.9043V5.90909C38.9043 4.95028 39.6031 4.27273 40.3872 4.27273C41.15 4.27273 41.6827 4.77131 41.6827 5.51705V10H42.7054V5.73864C42.7054 4.89489 43.2338 4.27273 44.1543 4.27273C44.8702 4.27273 45.4838 4.65199 45.4838 5.61932V10H46.4895V5.61932C46.4895 4.08097 45.6628 3.36932 44.4952 3.36932C43.5577 3.36932 42.8716 3.79972 42.5349 4.47727H42.4668C42.1429 3.77841 41.5719 3.36932 40.7111 3.36932C39.8588 3.36932 39.2281 3.77841 38.9554 4.47727H38.8702V3.45455H37.8986V10ZM51.4726 10.1364C52.8021 10.1364 53.7737 9.47159 54.0805 8.48295L53.1089 8.21023C52.8533 8.89205 52.2609 9.23295 51.4726 9.23295C50.2922 9.23295 49.4783 8.47017 49.4314 7.06818H54.1828V6.64205C54.1828 4.20455 52.7339 3.36932 51.3703 3.36932C49.5976 3.36932 48.4214 4.76705 48.4214 6.77841C48.4214 8.78977 49.5805 10.1364 51.4726 10.1364ZM49.4314 6.19886C49.4996 5.1804 50.2197 4.27273 51.3703 4.27273C52.4612 4.27273 53.1601 5.09091 53.1601 6.19886H49.4314ZM57.1183 6.0625C57.1183 4.92045 57.8257 4.27273 58.7888 4.27273C59.722 4.27273 60.2888 4.8821 60.2888 5.90909V10H61.2945V5.84091C61.2945 4.17045 60.4038 3.36932 59.0786 3.36932C58.0899 3.36932 57.4763 3.8125 57.1695 4.47727H57.0842V3.45455H56.1126V10H57.1183V6.0625ZM66.3788 3.45455H64.981V1.88636H63.9754V3.45455H62.9867V4.30682H63.9754V8.39773C63.9754 9.53977 64.8958 10.0852 65.7481 10.0852C66.1231 10.0852 66.3617 10.017 66.4981 9.96591L66.2935 9.0625C66.2083 9.07955 66.0719 9.11364 65.8504 9.11364C65.4072 9.11364 64.981 8.97727 64.981 8.125V4.30682H66.3788V3.45455ZM71.7256 2.21023H74.47V10H75.5268V2.21023H78.2711V1.27273H71.7256V2.21023ZM81.2013 10.1534C82.3433 10.1534 82.9399 9.53977 83.1445 9.11364H83.1956V10H84.2013V5.6875C84.2013 3.60795 82.6161 3.36932 81.7808 3.36932C80.7922 3.36932 79.6672 3.71023 79.1558 4.90341L80.1104 5.24432C80.332 4.76705 80.8561 4.25568 81.8149 4.25568C82.7396 4.25568 83.1956 4.74574 83.1956 5.58523V5.61932C83.1956 6.10511 82.7013 6.0625 81.5081 6.21591C80.2936 6.37358 78.9683 6.64205 78.9683 8.14205C78.9683 9.42045 79.957 10.1534 81.2013 10.1534ZM81.3547 9.25C80.5536 9.25 79.974 8.89205 79.974 8.19318C79.974 7.42614 80.6729 7.1875 81.457 7.08523C81.8831 7.03409 83.0251 6.91477 83.1956 6.71023V7.63068C83.1956 8.44886 82.5479 9.25 81.3547 9.25ZM91.0732 4.92045C90.7579 3.99148 90.0505 3.36932 88.755 3.36932C87.3744 3.36932 86.3516 4.15341 86.3516 5.26136C86.3516 6.16477 86.8886 6.76989 88.0903 7.05114L89.1812 7.30682C89.8417 7.46023 90.1528 7.77557 90.1528 8.22727C90.1528 8.78977 89.5562 9.25 88.6187 9.25C87.7962 9.25 87.2806 8.89631 87.1016 8.19318L86.1471 8.43182C86.3815 9.54403 87.2977 10.1364 88.6357 10.1364C90.157 10.1364 91.1925 9.3054 91.1925 8.17614C91.1925 7.2642 90.6215 6.68892 89.4539 6.40341L88.4823 6.16477C87.7067 5.97301 87.3573 5.71307 87.3573 5.21023C87.3573 4.64773 87.9539 4.23864 88.755 4.23864C89.6329 4.23864 89.9951 4.72443 90.1698 5.17614L91.0732 4.92045ZM93.1064 10H94.1121V7.54972L94.8152 6.89773L97.2655 10H98.5439L95.5737 6.25L98.3393 3.45455H97.095L94.2314 6.36932H94.1121V1.27273H93.1064V10ZM106.894 0.863636H105.974L103.161 11.3125H104.081L106.894 0.863636ZM117.17 3.45455H118.193C118.146 2.13778 116.932 1.15341 115.244 1.15341C113.574 1.15341 112.261 2.125 112.261 3.59091C112.261 4.76705 113.113 5.46591 114.477 5.85795L115.551 6.16477C116.471 6.42045 117.289 6.74432 117.289 7.61364C117.289 8.56818 116.369 9.19886 115.159 9.19886C114.119 9.19886 113.199 8.73864 113.113 7.75H112.022C112.125 9.18182 113.284 10.1534 115.159 10.1534C117.17 10.1534 118.312 9.04545 118.312 7.63068C118.312 5.99432 116.761 5.46591 115.858 5.22727L114.971 4.98864C114.324 4.81818 113.284 4.47727 113.284 3.53977C113.284 2.70455 114.051 2.09091 115.21 2.09091C116.267 2.09091 117.068 2.59375 117.17 3.45455ZM124.438 7.32386C124.438 8.55114 123.501 9.11364 122.751 9.11364C121.916 9.11364 121.319 8.5 121.319 7.54545V3.45455H120.313V7.61364C120.313 9.28409 121.2 10.0852 122.427 10.0852C123.416 10.0852 124.063 9.55682 124.37 8.89205H124.438V10H125.444V3.45455H124.438V7.32386ZM127.686 10H128.692V5.90909C128.692 4.95028 129.391 4.27273 130.175 4.27273C130.938 4.27273 131.47 4.77131 131.47 5.51705V10H132.493V5.73864C132.493 4.89489 133.021 4.27273 133.942 4.27273C134.658 4.27273 135.271 4.65199 135.271 5.61932V10H136.277V5.61932C136.277 4.08097 135.45 3.36932 134.283 3.36932C133.345 3.36932 132.659 3.79972 132.322 4.47727H132.254C131.93 3.77841 131.359 3.36932 130.499 3.36932C129.646 3.36932 129.016 3.77841 128.743 4.47727H128.658V3.45455H127.686V10ZM138.516 10H139.521V5.90909C139.521 4.95028 140.22 4.27273 141.004 4.27273C141.767 4.27273 142.3 4.77131 142.3 5.51705V10H143.323V5.73864C143.323 4.89489 143.851 4.27273 144.771 4.27273C145.487 4.27273 146.101 4.65199 146.101 5.61932V10H147.107V5.61932C147.107 4.08097 146.28 3.36932 145.112 3.36932C144.175 3.36932 143.489 3.79972 143.152 4.47727H143.084C142.76 3.77841 142.189 3.36932 141.328 3.36932C140.476 3.36932 139.845 3.77841 139.573 4.47727H139.487V3.45455H138.516V10ZM152.09 10.1364C153.419 10.1364 154.391 9.47159 154.698 8.48295L153.726 8.21023C153.47 8.89205 152.878 9.23295 152.09 9.23295C150.909 9.23295 150.095 8.47017 150.049 7.06818H154.8V6.64205C154.8 4.20455 153.351 3.36932 151.988 3.36932C150.215 3.36932 149.039 4.76705 149.039 6.77841C149.039 8.78977 150.198 10.1364 152.09 10.1364ZM150.049 6.19886C150.117 5.1804 150.837 4.27273 151.988 4.27273C153.078 4.27273 153.777 5.09091 153.777 6.19886H150.049ZM156.73 10H157.736V5.85795C157.736 4.97159 158.434 4.32386 159.389 4.32386C159.657 4.32386 159.934 4.375 160.003 4.39205V3.36932C159.887 3.3608 159.623 3.35227 159.474 3.35227C158.69 3.35227 158.008 3.79545 157.77 4.44318H157.701V3.45455H156.73V10ZM165.353 10H170.858V9.0625H166.801V8.99432L168.762 6.89773C170.262 5.29119 170.705 4.54119 170.705 3.57386C170.705 2.22727 169.614 1.15341 168.08 1.15341C166.55 1.15341 165.387 2.19318 165.387 3.72727H166.392C166.392 2.73438 167.036 2.07386 168.046 2.07386C168.992 2.07386 169.716 2.65341 169.716 3.57386C169.716 4.37926 169.243 4.97585 168.233 6.07955L165.353 9.23295V10ZM175.865 10.1193C177.791 10.1193 178.899 8.48722 178.899 5.63636C178.899 2.80682 177.774 1.15341 175.865 1.15341C173.956 1.15341 172.831 2.80682 172.831 5.63636C172.831 8.48722 173.939 10.1193 175.865 10.1193ZM175.865 9.18182C174.595 9.18182 173.853 7.90767 173.853 5.63636C173.853 3.36932 174.603 2.07386 175.865 2.07386C177.126 2.07386 177.876 3.36932 177.876 5.63636C177.876 7.90767 177.135 9.18182 175.865 9.18182ZM180.918 10H186.424V9.0625H182.367V8.99432L184.327 6.89773C185.827 5.29119 186.271 4.54119 186.271 3.57386C186.271 2.22727 185.18 1.15341 183.646 1.15341C182.116 1.15341 180.952 2.19318 180.952 3.72727H181.958C181.958 2.73438 182.601 2.07386 183.611 2.07386C184.557 2.07386 185.282 2.65341 185.282 3.57386C185.282 4.37926 184.809 4.97585 183.799 6.07955L180.918 9.23295V10ZM191.652 1.27273H190.595L188.413 2.72159V3.79545L190.544 2.38068H190.595V10H191.652V1.27273Z" fill="#8D7FBC"/>
</svg>
